<svg width="1397" height="326" viewBox="0 0 1397 326" fill="none" xmlns="http://www.w3.org/2000/svg">
<g clip-path="url(#clip0_1_16)">
<path d="M284.907 91.4775C277.109 71.5322 248.806 31.9208 197.98 33.0384C134.448 34.4353 104.541 103.819 119.855 141.736C132.106 172.069 132.501 172.526 131.167 168.962" stroke="black" stroke-width="8"/>
<path d="M276.737 101.735C270.146 84.7019 246.12 50.9156 202.743 52.0336C148.523 53.4311 122.78 112.866 135.727 145.244C146.085 171.147 146.42 171.536 145.293 168.492" stroke="#F5A5C5" stroke-width="23"/>
<path d="M260.598 106.593C255.52 93.3953 236.964 67.2342 203.367 68.1691C161.371 69.3377 141.34 115.465 151.317 140.552C159.298 160.621 159.558 160.922 158.689 158.564" stroke="#78CAD4" stroke-width="23"/>
<path d="M250.12 114.157C246.296 104.279 232.36 84.6855 207.205 85.3294C175.761 86.1342 160.838 120.596 168.35 139.372C174.359 154.393 174.554 154.619 173.9 152.854" stroke="#FBF398" stroke-width="23"/>
<path d="M241.861 102.857C234.398 92.295 213.673 74.8032 190.478 89.3295C161.485 107.487 166.027 131.561 171.491 142.867" stroke="black" stroke-width="8"/>
<path fill-rule="evenodd" clip-rule="evenodd" d="M233.079 123.241C264.173 102.896 279.463 93.9154 287.601 90.2433C291.634 88.4236 294.346 87.6954 296.569 87.825C297.749 87.8938 298.648 88.1949 299.361 88.4946C299.744 88.6557 299.962 88.7579 300.127 88.8353C300.33 88.9302 300.453 88.9879 300.704 89.0713C301.643 89.3843 302.331 90.0131 302.728 90.4177C303.189 90.887 303.632 91.4493 304.049 92.0362C304.887 93.2158 305.809 94.7659 306.773 96.5367C308.709 100.095 310.975 104.838 313.294 109.984C317.917 120.24 322.853 132.315 326.007 140.356C326.931 142.247 329.812 148.93 334.913 162.435C337.648 169.673 338.319 175.263 337.873 179.426C337.482 183.076 336.185 185.873 334.424 187.464C321.032 210.895 293.327 259.015 288.045 266.781C284.795 271.562 280.045 273.457 275.698 273.927C271.473 274.384 267.428 273.534 264.874 272.572C250.438 267.973 219.707 258.032 212.804 255.208C208.101 253.284 205.909 248.899 204.936 244.999C203.958 241.076 204.022 236.967 204.376 234.307C206.69 211.93 211.44 164.409 212.05 152.216C212.458 144.05 214.437 138.607 218.284 134.195C221.615 130.375 226.254 127.489 231.579 124.176C232.073 123.868 232.573 123.557 233.079 123.241Z" fill="#F5A5C5"/>
<path fill-rule="evenodd" clip-rule="evenodd" d="M269.872 114.551C273.742 116.459 277.634 117.525 281.408 117.949C281.878 118.002 282.345 118.045 282.809 118.078V155.67C279.72 163.855 272.536 169.926 265.693 170.295C262.334 170.476 258.797 169.324 255.477 165.986C252.259 162.751 249.183 157.386 246.909 149.075C256.157 135.148 263.772 123.703 269.872 114.551ZM241.807 153.525C244.191 161.033 247.369 166.56 251.115 170.326C255.6 174.834 260.817 176.72 266.024 176.439C272.846 176.072 279.169 172.064 283.663 166.431C283.912 167.763 284.221 169.09 284.596 170.387C285.871 174.781 288.013 179.159 291.54 182.075C295.231 185.125 300.076 186.276 305.929 184.765C308.968 183.981 312.277 182.485 315.887 180.192C301.771 204.849 277.005 247.778 272.189 254.86C270.209 257.772 267.331 259.017 264.268 259.348C261.132 259.688 258.028 259.024 256.218 258.332L256.136 258.301L256.053 258.274C241.485 253.633 210.988 243.761 204.366 241.052C202.3 240.207 200.903 238.117 200.139 235.05C199.386 232.03 199.43 228.705 199.712 226.621L199.718 226.573L199.723 226.525C201.777 206.673 205.804 166.493 207.09 149.24C208.378 151.645 209.811 153.651 211.375 155.29C215.244 159.34 219.778 160.981 224.374 160.907C228.849 160.834 233.183 159.146 236.919 156.932C238.647 155.908 240.289 154.746 241.807 153.525ZM208.713 135.984C209.528 133.4 210.69 131.457 212.154 129.778C214.849 126.687 218.686 124.294 224.326 120.776C224.74 120.518 225.165 120.253 225.599 119.981L225.626 119.964L225.653 119.947C237.421 112.247 246.87 106.212 254.483 101.498C257.71 105.666 261.113 108.911 264.587 111.384C258.612 120.351 251.196 131.497 242.23 144.997L242.107 144.881C239.866 147.271 236.958 149.756 233.782 151.638C230.584 153.534 227.308 154.705 224.274 154.754C221.361 154.801 218.487 153.827 215.825 151.04C213.175 148.265 210.623 143.567 208.713 135.984ZM321.078 168.505C314.028 174.705 308.542 177.736 304.392 178.807C300.25 179.876 297.481 179.002 295.461 177.332C293.277 175.527 291.612 172.487 290.506 168.673C289.415 164.908 288.962 160.707 288.962 156.984V117.979C293.772 117.485 298.059 116.071 301.433 114.389C304.522 121.65 307.447 128.879 309.557 134.263L309.608 134.392L309.67 134.516C310.36 135.896 313.156 142.296 318.389 156.149C320.425 161.537 321.078 165.591 321.078 168.505ZM222.311 114.78C253.405 94.4351 268.694 85.4546 276.833 81.7826C280.865 79.9629 283.578 79.2346 285.8 79.3643C286.98 79.4331 287.88 79.7341 288.593 80.0338C288.976 80.195 289.194 80.2971 289.359 80.3745C289.562 80.4695 289.685 80.5271 289.935 80.6106C290.874 80.9236 291.562 81.5524 291.96 81.957C292.421 82.4263 292.864 82.9885 293.281 83.5754C294.119 84.7551 295.041 86.3052 296.004 88.0759C297.941 91.6341 300.206 96.377 302.526 101.523C307.149 111.779 312.084 123.854 315.238 131.895C316.163 133.786 319.044 140.47 324.145 153.974C326.88 161.212 327.551 166.802 327.105 170.965C326.714 174.615 325.417 177.412 323.656 179.003C310.264 202.435 282.558 250.554 277.277 258.321C274.026 263.101 269.277 264.996 264.93 265.466C260.705 265.923 256.66 265.073 254.106 264.112C239.669 259.512 208.939 249.571 202.036 246.747C197.333 244.823 195.14 240.439 194.168 236.539C193.19 232.615 193.254 228.506 193.608 225.846C195.922 203.469 200.672 155.948 201.282 143.755C201.69 135.589 203.669 130.147 207.516 125.734C210.846 121.914 215.486 119.028 220.81 115.715C221.305 115.408 221.805 115.096 222.311 114.78Z" fill="black" stroke="black"/>
<path d="M243.141 192.152C243.999 188.952 247.289 187.052 250.49 187.91L271.346 193.498C274.547 194.356 276.447 197.646 275.589 200.847L270 221.703C269.143 224.904 265.853 226.804 262.652 225.946L241.796 220.357C238.595 219.5 236.695 216.21 237.553 213.009L243.141 192.152Z" fill="#FBF398"/>
<path fill-rule="evenodd" clip-rule="evenodd" d="M264.703 192.682L248.479 188.334C245.791 187.614 243.028 189.209 242.308 191.897L237.961 208.121C237.241 210.809 238.836 213.572 241.524 214.293L257.748 218.64C260.436 219.36 263.199 217.765 263.919 215.077L268.266 198.853C268.986 196.165 267.391 193.402 264.703 192.682ZM249.349 185.09C244.869 183.889 240.264 186.548 239.063 191.028L234.716 207.252C233.516 211.732 236.174 216.337 240.654 217.537L256.878 221.884C261.358 223.085 265.963 220.426 267.164 215.946L271.511 199.722C272.711 195.242 270.053 190.637 265.573 189.437L249.349 185.09Z" fill="black"/>
<path fill-rule="evenodd" clip-rule="evenodd" d="M251.77 201.863L255.357 188.478L258.601 189.347L255.015 202.732L268.197 206.264L267.327 209.509L254.146 205.977L250.831 218.347L247.586 217.478L250.901 205.107L237.516 201.521L238.386 198.276L251.77 201.863Z" fill="black"/>
<rect x="126.181" y="86.791" width="36.6478" height="8.37665" rx="4.18832" transform="rotate(-14.6657 126.181 86.791)" fill="white"/>
<rect x="144.272" y="69.0683" width="51.307" height="8.37665" rx="4.18832" transform="rotate(75.3343 144.272 69.0683)" fill="white"/>
<path d="M284.907 91.4775C277.109 71.5322 248.806 31.9208 197.98 33.0384C134.448 34.4353 104.541 103.819 119.855 141.736C132.106 172.069 132.501 172.526 131.167 168.962" stroke="black" stroke-width="8"/>
<rect x="124.038" y="84.8272" width="35" height="8" rx="4" transform="rotate(-14.6657 124.038 84.8272)" fill="black"/>
<rect x="141.316" y="67.9015" width="49" height="8" rx="4" transform="rotate(75.3343 141.316 67.9015)" fill="black"/>
<rect x="282.035" y="57.198" width="23.5714" height="5.38775" rx="2.69388" transform="rotate(14.0156 282.035 57.198)" fill="black"/>
<rect x="297.714" y="52.7821" width="33" height="5.38775" rx="2.69388" transform="rotate(104.016 297.714 52.7821)" fill="black"/>
<path fill-rule="evenodd" clip-rule="evenodd" d="M201.377 146.316C170.283 125.971 154.993 116.99 146.855 113.318C142.822 111.498 140.11 110.77 137.887 110.9C136.708 110.969 135.808 111.27 135.095 111.569C134.712 111.731 134.494 111.833 134.329 111.91C134.126 112.005 134.003 112.063 133.753 112.146C132.814 112.459 132.126 113.088 131.728 113.492C131.267 113.962 130.824 114.524 130.407 115.111C129.569 116.291 128.647 117.841 127.684 119.611C125.747 123.17 123.482 127.912 121.162 133.058C116.539 143.315 111.604 155.39 108.45 163.431C107.525 165.322 104.644 172.005 99.5427 185.51C96.8084 192.747 96.1368 198.338 96.5831 202.5C96.9744 206.15 98.2707 208.948 100.032 210.539C113.424 233.97 141.13 282.089 146.411 289.856C149.662 294.636 154.411 296.532 158.758 297.002C162.983 297.459 167.028 296.609 169.582 295.647C184.019 291.047 214.749 281.106 221.652 278.282C226.355 276.359 228.547 271.974 229.52 268.074C230.498 264.151 230.434 260.042 230.08 257.381C227.766 235.005 223.016 187.484 222.406 175.29C221.998 167.125 220.019 161.682 216.172 157.27C212.842 153.45 208.202 150.563 202.878 147.251C202.383 146.943 201.883 146.632 201.377 146.316Z" fill="#78CAD4"/>
<path fill-rule="evenodd" clip-rule="evenodd" d="M164.584 137.625C160.714 139.534 156.822 140.6 153.048 141.024C152.579 141.077 152.111 141.12 151.647 141.153V178.745C154.736 186.929 161.92 193.001 168.763 193.37C172.122 193.551 175.659 192.398 178.979 189.061C182.197 185.826 185.273 180.46 187.547 172.149C178.299 158.223 170.684 146.778 164.584 137.625ZM192.649 176.599C190.265 184.107 187.088 189.635 183.341 193.401C178.856 197.909 173.639 199.795 168.432 199.514C161.61 199.147 155.287 195.138 150.793 189.506C150.544 190.838 150.236 192.165 149.86 193.461C148.586 197.856 146.443 202.234 142.916 205.149C139.226 208.2 134.38 209.35 128.527 207.84C125.488 207.056 122.18 205.559 118.57 203.267C132.686 227.924 157.451 270.853 162.267 277.935C164.247 280.846 167.125 282.092 170.188 282.423C173.324 282.762 176.428 282.099 178.238 281.406L178.32 281.375L178.403 281.349C192.971 276.708 223.469 266.835 230.09 264.127C232.156 263.281 233.553 261.192 234.317 258.125C235.07 255.105 235.026 251.78 234.744 249.695L234.738 249.648L234.733 249.6C232.679 229.748 228.652 189.567 227.367 172.315C226.078 174.72 224.646 176.726 223.081 178.365C219.212 182.415 214.678 184.056 210.082 183.981C205.608 183.909 201.273 182.221 197.537 180.006C195.809 178.982 194.168 177.821 192.649 176.599ZM225.743 159.058C224.929 156.474 223.766 154.531 222.302 152.853C219.608 149.762 215.771 147.369 210.131 143.851C209.716 143.592 209.292 143.328 208.857 143.056L208.83 143.039L208.803 143.022C197.035 135.321 187.587 129.287 179.973 124.573C176.746 128.741 173.343 131.986 169.869 134.459C175.844 143.426 183.261 154.572 192.226 168.072L192.35 167.956C194.591 170.346 197.498 172.831 200.674 174.713C203.872 176.608 207.148 177.78 210.182 177.829C213.095 177.876 215.969 176.902 218.631 174.115C221.281 171.34 223.833 166.641 225.743 159.058ZM113.378 191.579C120.429 197.78 125.914 200.811 130.065 201.882C134.206 202.95 136.975 202.077 138.996 200.407C141.179 198.602 142.844 195.562 143.95 191.748C145.041 187.983 145.494 183.782 145.494 180.059V141.054C140.684 140.56 136.397 139.145 133.023 137.464C129.934 144.724 127.009 151.954 124.899 157.338L124.848 157.467L124.786 157.591C124.096 158.97 121.3 165.371 116.067 179.223C114.032 184.612 113.378 188.666 113.378 191.579ZM212.145 137.855C181.051 117.51 165.762 108.529 157.624 104.857C153.591 103.038 150.878 102.309 148.656 102.439C147.476 102.508 146.576 102.809 145.863 103.109C145.48 103.27 145.262 103.372 145.097 103.449C144.894 103.544 144.771 103.602 144.521 103.685C143.582 103.998 142.894 104.627 142.496 105.032C142.035 105.501 141.592 106.063 141.175 106.65C140.337 107.83 139.416 109.38 138.452 111.151C136.515 114.709 134.25 119.452 131.93 124.598C127.307 134.854 122.372 146.929 119.218 154.97C118.293 156.861 115.413 163.544 110.311 177.049C107.577 184.287 106.905 189.877 107.351 194.04C107.743 197.69 109.039 200.487 110.8 202.078C124.193 225.509 151.898 273.629 157.179 281.395C160.43 286.176 165.179 288.071 169.526 288.541C173.752 288.998 177.796 288.148 180.35 287.186C194.787 282.587 225.517 272.646 232.42 269.822C237.123 267.898 239.316 263.513 240.288 259.613C241.266 255.69 241.202 251.581 240.849 248.921C238.534 226.544 233.784 179.023 233.174 166.83C232.766 158.664 230.787 153.221 226.94 148.809C223.61 144.989 218.971 142.103 213.646 138.79C213.151 138.482 212.651 138.171 212.145 137.855Z" fill="black" stroke="black"/>
<path d="M160.569 228.609C159.15 223.845 161.862 218.833 166.626 217.415L188.415 210.926C193.179 209.507 198.191 212.219 199.61 216.983L206.099 238.772C207.517 243.536 204.806 248.548 200.042 249.966L178.252 256.456C173.488 257.874 168.476 255.162 167.058 250.399L160.569 228.609Z" fill="#FBF398"/>
<path fill-rule="evenodd" clip-rule="evenodd" d="M190.879 210.887L171.358 216.7C168.124 217.663 166.283 221.066 167.246 224.3L173.059 243.821C174.022 247.055 177.425 248.896 180.659 247.933L200.18 242.12C203.414 241.156 205.255 237.754 204.292 234.519L198.479 214.999C197.516 211.765 194.113 209.924 190.879 210.887ZM170.196 212.796C164.805 214.401 161.737 220.072 163.342 225.463L169.155 244.983C170.76 250.374 176.432 253.442 181.822 251.837L201.342 246.024C206.733 244.418 209.801 238.747 208.196 233.357L202.383 213.836C200.777 208.446 195.106 205.378 189.716 206.983L170.196 212.796Z" fill="black"/>
<path fill-rule="evenodd" clip-rule="evenodd" d="M183.35 228.585L178.554 212.48L182.458 211.318L187.254 227.422L203.114 222.699L204.277 226.603L188.416 231.326L192.849 246.211L188.945 247.373L184.512 232.489L168.408 237.285L167.245 233.381L183.35 228.585Z" fill="black"/>
<path d="M426.3 136.98H475.44V153.9H426.3V136.98ZM548.16 112.68L562.38 127.8C544.92 142.74 522.42 158.04 501.72 170.64C500.28 166.68 496.32 160.92 493.44 157.32C513.06 145.44 534.66 127.08 548.16 112.68ZM487.32 83.34H505.14V216.18C505.14 226.44 506.4 228.24 513.96 228.24C517.38 228.24 532.32 228.24 536.28 228.24C544.56 228.24 545.82 219.96 547.08 187.2C551.4 190.44 558.78 193.86 563.46 195.12C561.66 231.48 557.34 244.8 537.72 244.8C533.94 244.8 515.4 244.8 511.8 244.8C492.72 244.8 487.32 238.32 487.32 215.82V83.34ZM414.42 248.4C413.16 244.26 409.02 237.06 406.14 234C409.74 231.66 414.42 226.98 414.42 218.7V84.42H432.42V230.76C432.42 230.76 414.42 241.74 414.42 248.4ZM414.42 248.4L411.9 231.3L419.64 225L474.36 207.54C474 212.94 474.54 220.68 475.26 224.82C426.48 241.38 418.92 244.8 414.42 248.4ZM644.64 113.76H743.1V129.78H644.64V113.76ZM656.7 142.56L671.64 139.14C677.4 163.8 682.8 195.66 684.6 214.02L668.22 218.52C666.78 199.8 661.92 167.22 656.7 142.56ZM713.4 137.88L731.22 140.76C726.36 170.82 718.44 207.9 711.42 231.12L696.84 228.06C703.32 204.3 710.16 165.6 713.4 137.88ZM636.36 225.54H747.6V241.56H636.36V225.54ZM677.58 84.42L693.78 80.28C697.2 89.1 701.16 100.44 702.78 108.18L686.04 113.04C684.6 105.3 680.82 93.42 677.58 84.42ZM579.84 175.68C594.96 172.44 616.56 166.5 637.62 160.92L639.6 176.4C620.7 181.98 600.36 187.74 584.52 192.06L579.84 175.68ZM582.18 117.54H638.16V133.38H582.18V117.54ZM603.42 82.08H620.16V230.4C620.16 239.04 618.36 243.18 613.32 245.7C608.46 248.4 601.26 248.94 589.92 248.76C589.2 244.62 587.04 237.78 585.06 233.46C591.9 233.64 598.38 233.64 600.36 233.46C602.7 233.46 603.42 232.74 603.42 230.4V82.08ZM801.78 103.86H853.44V118.62H801.78V103.86ZM820.14 83.7H834.9C834.36 139.86 832.74 188.82 812.58 217.8C810.24 214.38 805.2 209.52 801.42 207.36C819.24 181.44 819.78 135.72 820.14 83.7ZM847.32 103.86H862.62C862.62 103.86 862.62 109.08 862.44 111.06C861.36 180 860.64 202.5 856.32 209.34C853.26 213.84 850.38 215.46 845.7 216.18C841.74 216.72 835.8 216.9 829.68 216.54C829.32 212.22 827.88 205.92 825.72 201.96C830.94 202.5 835.26 202.5 837.96 202.5C840.12 202.5 841.38 202.14 842.64 199.8C845.52 195.12 846.42 173.16 847.32 107.28V103.86ZM798 151.38V216.72H782.34V167.22H762.36V151.38H798ZM760.92 95.58L774.96 88.92C783.24 99 792.96 112.86 797.46 121.86L782.52 129.42C778.38 120.42 769.02 106.2 760.92 95.58ZM790.98 209.34C796.92 209.34 801.42 214.56 811.68 220.86C823.56 228.06 839.58 229.32 860.1 229.32C881.16 229.32 909.24 227.7 927.24 225.36C925.26 229.86 922.56 238.14 922.2 243C909.42 243.9 877.38 244.98 859.56 244.98C836.52 244.98 821.4 242.82 808.26 235.26C800.52 230.58 794.4 224.64 790.62 224.64C784.86 224.64 777.12 235.8 769.38 247.5L757.86 231.66C769.74 218.52 781.98 209.34 790.98 209.34ZM886.56 110.16V198.54H904.56V110.16H886.56ZM872.52 95.58H919.5V213.12H872.52V95.58ZM954.6 156.06H1007.52V169.56H954.6V156.06ZM946.68 99.9H1005.18V114.48H946.68V99.9ZM939.3 129.78H1026.96V144.54H939.3V129.78ZM969 82.08H984.84V137.34H969V82.08ZM1017.24 86.4L1033.08 90.9C1015.44 135.36 986.1 169.56 949.38 190.98C947.04 187.56 941.1 181.08 937.68 178.02C974.04 159.3 1001.94 127.08 1017.24 86.4ZM976.56 184.14H992.58V232.2C992.58 240.12 991.14 244.26 985.56 246.42C979.98 248.94 971.88 248.94 960.36 248.94C959.64 244.62 957.48 238.68 955.32 234.36C963.42 234.72 971.16 234.54 973.5 234.54C976.02 234.36 976.56 233.82 976.56 231.84V184.14ZM1004.1 156.06H1007.52L1010.76 155.16L1020.3 162.54C1010.76 173.52 996.9 185.58 984.84 192.96C983.04 190.26 979.08 186.12 976.56 184.14C986.64 177.66 998.34 166.68 1004.1 158.94V156.06ZM938.94 199.44C961.26 197.64 995.64 194.58 1028.04 191.34V206.1C996.9 209.16 963.78 212.58 940.92 214.74L938.94 199.44ZM1041.54 115.38H1106.52V131.22H1041.54V115.38ZM1045.32 82.08L1062.6 84.78C1056.3 119.52 1045.32 152.46 1029.66 173.52C1026.78 170.46 1019.76 164.34 1015.8 161.64C1030.74 143.1 1040.28 113.22 1045.32 82.08ZM1078.62 124.56L1096.08 126.18C1087.8 188.1 1068.9 226.8 1023.54 249.84C1021.74 245.88 1016.7 238.14 1013.46 234.54C1055.58 215.28 1072.14 180 1078.62 124.56ZM1050.54 128.16C1058.28 176.22 1074.66 217.26 1108.14 234.72C1104.18 238.14 1098.78 244.8 1096.26 249.3C1060.44 228.24 1044.06 185.04 1035.24 130.68L1050.54 128.16ZM1155.84 145.08V170.1H1249.26V145.08H1155.84ZM1141.44 133.92H1264.56V181.08H1141.44V133.92ZM1171.5 114.48H1234.68V126H1171.5V114.48ZM1195.26 137.88H1209.3V175.68H1195.26V137.88ZM1164.66 149.76L1176.72 146.16C1180.68 152.28 1184.46 160.56 1185.9 166.14L1173.12 170.28C1172.04 164.7 1168.62 156.06 1164.66 149.76ZM1227.3 145.44L1241.52 149.4C1237.56 157.14 1233.42 165.06 1230 170.28L1218.3 166.68C1221.36 160.74 1225.32 151.56 1227.3 145.44ZM1151.7 188.64H1255.56V248.4H1238.1V200.16H1168.44V249.12H1151.7V188.64ZM1161.42 210.06H1245.48V221.76H1161.42V210.06ZM1161.6 232.02H1245.48V243.54H1161.6V232.02ZM1200.48 81L1215.6 86.58C1196.16 111.6 1162.14 129.24 1128.12 139.86C1126.32 136.44 1121.64 129.6 1118.76 126.54C1151.88 118.08 1183.92 102.42 1200.48 81ZM1211.1 88.2C1227.48 104.58 1259.52 118.8 1289.04 125.28C1285.44 128.34 1280.58 134.46 1278.24 138.42C1248.54 130.5 1216.68 113.58 1198.32 93.42L1211.1 88.2Z" fill="black"/>
</g>
<defs>
<clipPath id="clip0_1_16">
<rect width="1397" height="326" fill="white"/>
</clipPath>
</defs>
</svg>
